<?xml version="1.0" encoding="UTF-8"?>
<svg id="_圖層_2" data-name="圖層 2" xmlns="http://www.w3.org/2000/svg" viewBox="0 0 221.82 124.3">
  <defs>
    <style>
      .cls-1 {
        fill: #fceed4;
      }
    </style>
  </defs>
  <g id="_圖層_1-2" data-name="圖層 1">
    <g>
      <path class="cls-1" d="M180.62,3.27c-.66-1.69-2.06-3.32-3.95-3.19-3.39.25-4.2,4.92-3.36,8.08.53,2.01,1.5,4.14,3.48,4.88,1.98.73,6.02-1.78,5.3-3.72,0,0-.9-4.6-1.47-6.05Z"/>
      <path class="cls-1" d="M199.71,12.66c2.38.82,5.29-.62,6.38-2.89,1.09-2.27,1.8-7.28-3.37-9.6-2.76-1.23-5.7,4.48-6.63,7.36-.48,1.49.23,3.96,3.63,5.12Z"/>
      <path class="cls-1" d="M210.97,21.25c1.52-3.57,7.73-4.89,9.87-2.27,2.14,2.62.85,6.78-4.46,8.92-3.14,1.26-6.59-3.16-5.52-6.36"/>
      <path class="cls-1" d="M219.62,48.32c-1.77,1.29-2.96.82-5.07.22-2.11-.6-4.19-2.16-4.3-4.7-.03-.74-.08-1.34.31-1.97,1.12-1.85,3.03-1.92,4.42-1.82,2.9.22,6.13,1.95,6.75,4.81.26,1.22-.4,2.21-2.1,3.45Z"/>
      <path class="cls-1" d="M176.62,27.04c1.69-2.23,1.33-1.95,3.47-3.76,1.4-1.19,3.05-2.33,4.88-2.22,2.9.17,4.63,3.2,5.82,5.85,2.01-.07,3.24-2.25,5.07-3.08,2-.9,4.55.12,5.66,2.01,1.11,1.89.88,4.39-.28,6.25-.5.8-1.19,1.61-1.1,2.56.11,1.18,1.35,1.86,2.14,2.75,1.81,2.04,1.21,5.25,0,7.7-1.38,2.81-4,5.56-7.1,5.17-3.92-.49-5.52-5.33-8.74-7.63-1.41-1-3.11-1.5-4.63-2.33-4.3-2.37-6.71-7.74-5.62-12.54"/>
    </g>
    <g>
      <path class="cls-1" d="M51.01,31.01c-.61-1.56-1.9-3.06-3.64-2.93-3.12.23-3.87,4.53-3.1,7.44.49,1.85,1.38,3.81,3.2,4.49,1.83.68,5.54-1.64,4.88-3.43,0,0-.83-4.24-1.35-5.57Z"/>
      <path class="cls-1" d="M68.59,39.65c2.19.75,4.87-.57,5.87-2.66s1.66-6.7-3.11-8.84c-2.54-1.14-5.25,4.13-6.1,6.77-.44,1.37.21,3.64,3.34,4.72Z"/>
      <path class="cls-1" d="M78.95,47.56c1.4-3.28,7.12-4.5,9.09-2.09,1.97,2.41.78,6.24-4.1,8.21-2.89,1.16-6.07-2.9-5.08-5.86"/>
      <path class="cls-1" d="M86.91,72.48c-1.63,1.19-2.72.75-4.66.2-1.94-.55-3.86-1.99-3.96-4.32-.03-.68-.07-1.23.28-1.81,1.03-1.7,2.79-1.77,4.07-1.67,2.67.2,5.64,1.79,6.22,4.42.24,1.12-.37,2.03-1.94,3.18Z"/>
      <path class="cls-1" d="M47.33,52.89c1.56-2.05,1.22-1.79,3.19-3.46,1.29-1.09,2.81-2.14,4.49-2.04,2.67.15,4.26,2.95,5.36,5.38,1.85-.06,2.98-2.08,4.67-2.83,1.84-.83,4.19.11,5.21,1.85,1.02,1.74.81,4.04-.26,5.75-.46.74-1.1,1.48-1.02,2.35.1,1.09,1.24,1.71,1.97,2.53,1.67,1.88,1.11,4.84,0,7.09-1.27,2.59-3.68,5.12-6.54,4.76-3.61-.45-5.09-4.91-8.05-7.02-1.3-.92-2.87-1.38-4.26-2.15-3.96-2.18-6.18-7.13-5.17-11.54"/>
    </g>
    <g>
      <path class="cls-1" d="M7.01,81.01c-.61-1.56-1.9-3.06-3.64-2.93-3.12.23-3.87,4.53-3.1,7.44.49,1.85,1.38,3.81,3.2,4.49,1.83.68,5.54-1.64,4.88-3.43,0,0-.83-4.24-1.35-5.57Z"/>
      <path class="cls-1" d="M24.59,89.65c2.19.75,4.87-.57,5.87-2.66s1.66-6.7-3.11-8.84c-2.54-1.14-5.25,4.13-6.1,6.77-.44,1.37.21,3.64,3.34,4.72Z"/>
      <path class="cls-1" d="M34.95,97.56c1.4-3.28,7.12-4.5,9.09-2.09,1.97,2.41.78,6.24-4.1,8.21-2.89,1.16-6.07-2.9-5.08-5.86"/>
      <path class="cls-1" d="M42.91,122.48c-1.63,1.19-2.72.75-4.66.2-1.94-.55-3.86-1.99-3.96-4.32-.03-.68-.07-1.23.28-1.81,1.03-1.7,2.79-1.77,4.07-1.67,2.67.2,5.64,1.79,6.22,4.42.24,1.12-.37,2.03-1.94,3.18Z"/>
      <path class="cls-1" d="M3.33,102.89c1.56-2.05,1.22-1.79,3.19-3.46,1.29-1.09,2.81-2.14,4.49-2.04,2.67.15,4.26,2.95,5.36,5.38,1.85-.06,2.98-2.08,4.67-2.83,1.84-.83,4.19.11,5.21,1.85,1.02,1.74.81,4.04-.26,5.75-.46.74-1.1,1.48-1.02,2.35.1,1.09,1.24,1.71,1.97,2.53,1.67,1.88,1.11,4.84,0,7.09-1.27,2.59-3.68,5.12-6.54,4.76-3.61-.45-5.09-4.91-8.05-7.02-1.3-.92-2.87-1.38-4.26-2.15-3.96-2.18-6.18-7.13-5.17-11.54"/>
    </g>
  </g>
</svg>