<svg xmlns="http://www.w3.org/2000/svg" xmlns:xlink="http://www.w3.org/1999/xlink" viewBox="0 0 810 351"><g transform="translate(-134 -99)"><g><g><g><path d="M64.125 51.634C64.125 46.7578 68.066 42.75 73.009 42.75 75.3469 42.75 77.618 43.6852 79.2879 45.3551L89.2406 55.3078C86.8359 61.3195 85.5 67.9324 85.5 74.8125 85.5 88.1051 90.3094 100.195 98.325 109.547 94.7848 115.692 95.6531 123.641 100.863 128.918 107.142 135.197 117.295 135.197 123.507 128.918L193.043 59.4492C199.322 53.1703 199.322 43.0172 193.043 36.8051 187.766 31.5281 179.817 30.7266 173.672 34.2668 164.32 26.1844 152.23 21.375 138.938 21.375 132.057 21.375 125.445 22.7109 119.433 25.0488L109.48 15.0961C99.7945 5.41055 86.6355 0 73.009 0 44.4867 0 21.375 23.1117 21.375 51.634L21.375 171C9.55195 171 0 180.552 0 192.375 0 204.198 9.55195 213.75 21.375 213.75L320.625 213.75C332.448 213.75 342 204.198 342 192.375 342 180.552 332.448 171 320.625 171L64.125 171 64.125 51.634ZM21.375 235.125 21.375 245.812C21.375 264.783 29.6578 281.883 42.75 293.639L42.75 320.625C42.75 332.448 52.302 342 64.125 342 75.948 342 85.5 332.448 85.5 320.625L85.5 309.938 256.5 309.938 256.5 320.625C256.5 332.448 266.052 342 277.875 342 289.698 342 299.25 332.448 299.25 320.625L299.25 293.639C312.342 281.883 320.625 264.85 320.625 245.812L320.625 235.125 21.375 235.125Z" transform="matrix(1 0 0 1.00292 601 99)"/></g></g></g><g><g><g><path d="M298.5 244.625 273.272 219.397C276.402 211.35 278.062 202.664 278.062 193.531 278.062 153.997 246.065 122 206.531 122 166.997 122 135 153.997 135 193.531 135 233.065 166.997 265.062 206.531 265.062 215.664 265.062 224.35 263.338 232.397 260.272L257.625 285.5 232.397 310.728C224.35 307.598 215.664 305.938 206.531 305.938 166.997 305.938 135 337.935 135 377.469 135 417.003 166.997 449 206.531 449 246.065 449 278.062 417.003 278.062 377.469 278.062 368.336 276.338 359.65 273.272 351.603L453.825 171.05C458.36 166.515 458.36 159.235 453.825 154.7 435.751 136.626 406.499 136.626 388.425 154.7L298.5 244.625ZM312.934 340.809 388.425 416.3C406.499 434.374 435.751 434.374 453.825 416.3 458.36 411.765 458.36 404.485 453.825 399.95L353.809 299.934 312.934 340.809ZM175.875 193.531C175.875 176.6 189.6 162.875 206.531 162.875 223.462 162.875 237.188 176.6 237.188 193.531 237.188 210.462 223.462 224.188 206.531 224.188 189.6 224.188 175.875 210.462 175.875 193.531ZM206.531 346.812C223.462 346.812 237.188 360.538 237.188 377.469 237.188 394.4 223.462 408.125 206.531 408.125 189.6 408.125 175.875 394.4 175.875 377.469 175.875 360.538 189.6 346.812 206.531 346.812Z"/></g></g></g><g><g><g><path d="M74.5 23.2812C74.5 18.1303 70.3385 13.9688 65.1875 13.9688 60.0365 13.9688 55.875 18.1303 55.875 23.2812L55.875 65.1875 13.9688 65.1875C8.81777 65.1875 4.65625 69.349 4.65625 74.5 4.65625 79.651 8.81777 83.8125 13.9688 83.8125L55.875 83.8125 55.875 125.719C55.875 130.87 60.0365 135.031 65.1875 135.031 70.3385 135.031 74.5 130.87 74.5 125.719L74.5 83.8125 116.406 83.8125C121.557 83.8125 125.719 79.651 125.719 74.5 125.719 69.349 121.557 65.1875 116.406 65.1875L74.5 65.1875 74.5 23.2812Z" transform="matrix(1.00479 0 0 1 445 196)"/></g></g></g></g></svg>