<?xml version="1.0" encoding="UTF-8"?>
<svg id="_圖層_2" data-name="圖層 2" xmlns="http://www.w3.org/2000/svg" viewBox="0 0 390.16 179.63">
  <defs>
    <style>
      .cls-1 {
        fill: currentColor;
      }
    </style>
  </defs>
  <g id="_跳出視窗" data-name="跳出視窗">
    <path class="cls-1" d="M390.16,89.81c0,10.39-11.13,17.87-18.47,27.1-6,7.55-8.95,20.48-19.05,26.9-8.38,5.33-21.69,3.12-32.44,7.45-9.44,3.8-17.19,14.77-28.15,17.67-9.99,2.65-22.23-2.92-33.26-1.13-10.31,1.68-20.08,10.9-31.12,11.76-10.49.81-21.59-6.75-32.59-6.75s-22.1,7.56-32.59,6.75c-11.04-.86-20.81-10.08-31.12-11.76-11.04-1.8-23.27,3.77-33.26,1.12-10.96-2.9-18.71-13.87-28.15-17.67-10.75-4.33-24.06-2.12-32.44-7.45-10.1-6.42-13.05-19.35-19.05-26.9C11.13,107.68,0,100.2,0,89.81s11.13-17.87,18.47-27.1c6-7.55,8.95-20.48,19.05-26.9,8.38-5.33,21.69-3.12,32.44-7.45,9.44-3.8,17.19-14.77,28.15-17.67,9.99-2.65,22.23,2.92,33.26,1.13,10.31-1.68,20.08-10.9,31.12-11.76,10.49-.81,21.59,6.75,32.59,6.75S217.18-.75,227.67.06c11.04.86,20.81,10.08,31.12,11.76,11.04,1.8,23.27-3.77,33.26-1.12,10.96,2.9,18.71,13.87,28.15,17.67,10.75,4.33,24.06,2.12,32.44,7.45,10.1,6.42,13.05,19.35,19.05,26.9,7.34,9.24,18.47,16.71,18.47,27.1Z"/>
  </g>
</svg>