<?xml version="1.0" encoding="UTF-8"?>
<svg id="_圖層_2" data-name="圖層 2" xmlns="http://www.w3.org/2000/svg" xmlns:xlink="http://www.w3.org/1999/xlink" viewBox="0 0 64 64">
  <defs>
    <style>
      .cls-1 {
        fill: #fff;
      }

      .cls-2 {
        clip-path: url(#clippath);
      }

      .cls-3 {
        fill: currentColor;
      }
    </style>
    <clipPath id="clippath">
      <rect class="cls-3" x="0" y="0" width="64" height="64" rx="32" ry="32"/>
    </clipPath>
  </defs>
  <g id="_圖層_1-2" data-name="圖層 1">
    <g>
      <g>
        <rect class="cls-3" x="0" y="0" width="64" height="64" rx="32" ry="32"/>
        <g class="cls-2">
          <g>
            <g>
              <path class="cls-1" d="M19.13,74.3c-.14-5.38-.27-10.76-.41-16.14-.03-1.38-.09-2.82-.76-4.03-.93-1.65-2.81-2.47-4.35-3.57-3.46-2.44-6.28-5.85-6.06-10.08.04-.83.92-2.58,1.47-3.2.68-.78,1.98-1.6,3.01-1.69,2.73-.23,5.33.57,8,1.15-.84-4.11-3.92-8.47-1.71-12.03,1.59-2.55,5.38-2.99,8.04-1.6s4.35,4.13,5.51,6.91c-.14-3.27.42-7.23,3.4-8.59,2.83-1.29,6.31.84,7.5,3.72,1.19,2.88.69,6.16-.05,9.19,2.9-3.19,7.74-6.11,11.22-3.56,1.99,1.45,2.58,4.32,1.84,6.67s-2.59,4.21-4.66,5.54c-.74.47-1.58.98-1.78,1.83-.12.48,0,.98.11,1.45,1.81,7.68,3.62,15.35,5.43,23.03"/>
              <path class="cls-3" d="M20.63,74.3c-.13-5.05-.25-10.11-.38-15.16-.06-2.21-.03-4.53-1.41-6.38-1.16-1.55-2.92-2.4-4.47-3.48-2.61-1.82-6.28-5.58-5.2-9.15.47-1.55,1.64-2.9,3.32-3.06,2.39-.22,4.85.61,7.15,1.13,1.15.25,2.1-.7,1.85-1.85-.52-2.39-1.62-4.59-2.2-6.96-.49-2.01-.24-4.29,1.9-5.19,4.58-1.92,7.89,3.05,9.39,6.59.6,1.4,2.84.65,2.8-.76-.09-2.77.45-8.49,4.65-7.34,4.88,1.34,4.15,7.51,3.25,11.26-.33,1.4,1.45,2.6,2.51,1.46,2.06-2.22,7.07-6.26,9.87-2.86,1.19,1.45,1.17,3.59.41,5.22-.86,1.86-2.46,3.08-4.11,4.2-1.78,1.2-2.39,2.6-1.94,4.7.54,2.57,1.21,5.12,1.81,7.68,1.21,5.12,2.41,10.23,3.62,15.35.44,1.88,3.34,1.08,2.89-.8-1.06-4.48-2.11-8.95-3.17-13.43-.53-2.24-1.06-4.48-1.58-6.72-.24-1.01-.54-2.03-.72-3.06-.14-.85.55-1.09,1.19-1.51,2.95-1.96,5.49-4.94,5.54-8.64.05-3.42-2.17-6.64-5.67-7.14-3.95-.56-7.71,2.15-10.26,4.89l2.51,1.46c.78-3.25,1.33-6.79.05-9.98-.97-2.42-3.13-4.47-5.71-5.04s-5.16.56-6.6,2.8-1.61,4.99-1.53,7.51l2.8-.76c-1.17-2.76-2.83-5.42-5.4-7.07-2.29-1.47-5.29-1.8-7.81-.72-2.65,1.14-4.1,3.82-3.89,6.66.23,3.15,1.86,5.96,2.53,9l1.85-1.85c-3.44-.77-7.88-2.36-11.11-.22-2.68,1.77-3.68,4.97-3.05,8.03.67,3.25,2.95,5.95,5.5,7.94,1.34,1.05,2.99,1.79,4.21,2.97,1.44,1.39,1.23,3.51,1.28,5.36.12,4.97.25,9.95.37,14.92.05,1.93,3.05,1.93,3,0h0Z"/>
            </g>
            <path class="cls-3" d="M16.54,39.45c-1.02-.27-2.26-.17-2.84.76-1.04,1.67.86,3.65,2.63,4.34,1.12.44,2.45.72,3.47.04s1.23-3.43.07-3.75c0,0-2.46-1.15-3.33-1.38Z"/>
            <path class="cls-3" d="M27.46,33.73c1.2-.83,1.52-2.69.83-3.97s-2.79-3.33-5.65-1.7c-1.52.87.15,4.2,1.18,5.62.53.74,1.93,1.24,3.64.05Z"/>
            <path class="cls-3" d="M35.33,31.4c-1.15-1.93.36-5.29,2.31-5.39,1.96-.1,3.46,1.92,2.65,5.14-.48,1.9-3.73,2-4.86.41"/>
            <path class="cls-3" d="M50.96,36.61c0,1.27-.63,1.66-1.63,2.45s-2.45,1.22-3.67.41c-.36-.24-.65-.42-.82-.82-.48-1.16.14-2.08.66-2.69,1.09-1.28,3.01-2.2,4.56-1.52.66.29.9.94.9,2.17Z"/>
            <path class="cls-3" d="M26.29,49.45c-.47-1.56-.46-1.29-.57-2.91-.08-1.06-.04-2.22.63-3.04,1.07-1.3,3.08-1.07,4.73-.72.66-.96.05-2.29.29-3.43.26-1.24,1.61-2.09,2.88-1.96,1.26.13,2.36,1.09,2.83,2.27.2.51.35,1.11.82,1.39.59.35,1.33,0,2.02-.06,1.57-.15,2.87,1.23,3.61,2.63.84,1.61,1.23,3.77,0,5.09-1.57,1.67-4.39.76-6.56,1.48-.95.32-1.77.95-2.67,1.37-2.58,1.2-5.92.49-7.79-1.66"/>
          </g>
        </g>
      </g>
      <g>
        <path class="cls-1" d="M23.4,18.17c-.32-.42-.18-1.6-.13-2.26.05-.81.1-2.08.1-2.84-.05-.66.08-2.36-.32-2.98-.27-.29-2.11.18-2.69-.31-.16-.13-.34-.73-.16-1.1.27-.58,2.77-.5,3.64-.42.81.06,2.53-.06,3.31-.08.31-.03.95.1,1.02.45.06.44-.18.89-.45,1.03-.45.23-1.79.05-2.16.4-.42.37-.26,1.58-.29,2.61-.08,2.08.1,4.08-.31,5.44-.19.65-1.23.68-1.55.05Z"/>
        <path class="cls-1" d="M36.6,8.56c1.26,1.21,1.48,3.32,1.21,5-.23,1.39-.39,1.89-.95,2.73-.98,1.6-2.48,2.44-4.47,2.45-1.47-.02-2.32-.74-2.94-1.68-.69-1.05-.95-1.69-.85-3.4.11-1.94.63-3.58,1.63-4.52.77-.92,1.87-1.63,3.21-1.65,1.05-.02,2.47.23,3.16,1.06ZM30.56,14.54c.1.9,1.11,2.15,1.84,2.4,1.23.42,2.27-.45,2.71-1.13.58-.87.82-2.21.86-3.29-.03-1.24-.79-2.61-1.61-2.87-.39-.13-.89-.26-1.48-.21-.73.06-1.48.76-1.77,1.34-.34.68-.68,2.56-.53,3.76Z"/>
        <path class="cls-1" d="M41.59,17.6c-.06.32-.06.63-.18.81-.21.29-1.05.76-1.47.32-.39-.4-.1-4.5-.06-5.24.1-2.02.08-2.15.21-4.31.06-1,.16-1.85,1.1-1.92.35-.03.84.13,1.34.23,1.4.27,2.73.71,3.6,1.48.45.39,1.03,1.24,1.18,1.84.19.77-.02,1.68-.35,2.23-.37.58-1.11,1.13-1.81,1.47-.98.45-2.08.45-3.34.89-.13.63-.08,1.52-.21,2.21ZM42.06,9.28c-.1.6-.19.71-.23,1.9.05.82-.19,1.65-.02,2.45,1.52-.03,3.61-.55,3.68-1.89.06-1.48-2.15-2.37-3.44-2.47Z"/>
      </g>
    </g>
  </g>
</svg>