<?xml version="1.0" encoding="UTF-8"?>
<svg id="_圖層_2" data-name="圖層 2" xmlns="http://www.w3.org/2000/svg" viewBox="0 0 229.6 31.76">
  <g id="_圖層_1-2" data-name="圖層 1">
    <g>
      <path d="M4.57,26.58c-.16.8-.16,1.56-.44,2-.52.72-2.6,1.88-3.63.8-.96-1-.24-11.14-.16-12.98.24-4.99.2-5.31.52-10.66.16-2.48.4-4.59,2.72-4.75.88-.08,2.08.32,3.31.56,3.47.68,6.75,1.76,8.9,3.67,1.12.96,2.56,3.07,2.92,4.55.48,1.92-.04,4.15-.88,5.51-.92,1.44-2.76,2.8-4.47,3.63-2.44,1.12-5.15,1.12-8.27,2.2-.32,1.56-.2,3.75-.52,5.47ZM5.72,5.98c-.24,1.48-.48,1.76-.56,4.71.12,2.04-.48,4.07-.04,6.07,3.75-.08,8.94-1.36,9.1-4.67.16-3.67-5.31-5.87-8.51-6.11Z"/>
      <path d="M21.42,12.93c-.2-1.6,1.32-2.36,2.6-2.92,2.52-1.28,4.47-2.12,6.99-1.56,1.44.52,2.79,2.44,3.11,4.51.44,2.56-.16,5.43-.48,7.47-.44,2.32-.84,4.51-1.48,6.67-.28.8-1.32,2.24-2.28,2.36-.68.12-2.32-.16-3-.44-2.36-.92-4.15-1.64-5.91-3.51-.72-.64-1.52-1.48-1.64-2.4-.44-2.12.6-3.51,1.48-4.39.56-.56,1.96-1.4,3.07-1.76,1.96-.6,5.39-.36,6.03-1.16,1-1.36-.36-3.43-1.28-3.55-2.99.48-4.67,2.28-6.15,2.16-.76-.28-.96-.76-1.08-1.48ZM23.38,21.31c.04,2.32,3,3.15,4.91,3.43,1.24-.32,1.36-3.11,1.36-4.51-.52-.44-2.04-.24-2.8-.2-1.52.08-2.88.48-3.47,1.28Z"/>
      <path d="M46.38,16.76c.8-.4,1.84-.68,2.56.2,1.2,1.52,1.92,7.19,2.96,7.35.92.12,3.39-3.63,4.03-6.19.6-2.36.8-5.95,1.4-7.27.68-1,2.88-1.48,3.79,0,.32,6.71-2.88,13.9-6.59,16.45-1.64,1.08-3.75,1.88-5.19.64-.68-.56-1.96-3.71-2.28-3.83-.24-.12-1.96,2.79-2.79,3.43-1.6,1.16-4.55,1.56-5.79-.44-.92-1.4-1.24-4.11-1.6-6.27-.2-1.44-.88-7.87.2-9.18.8-1,2.92-.84,3.51.12.52.84.04,4.95.12,6.39.16,2.04.36,5.07,1.04,5.95,2.2-.6,3.35-6.39,4.63-7.35Z"/>
      <path d="M74.26,17c-1.4,1.48-4.59,4.11-5.59,5.91.6.36,2.56.36,3.87.44,2.48.04,4.11-.52,4.47,1.4.24,1.64-1.2,2.2-2.6,2.24-2.28.08-3.99-.12-6.51-.24-1.8-.12-4.31-.04-4.55-1.48-.24-2.04,1.8-3.95,2.6-4.87,1.28-1.52,4.27-4.55,5.55-5.55-1.6-.52-7.31.4-7.67-1.24-.12-1.04-.04-1.48.56-1.88,1.24-.84,5.03-.8,8.43-.68,1.48,0,3.35.16,3.95,1.2.52,2.76-1.28,3.47-2.52,4.75Z"/>
      <path d="M90.63,17c-1.4,1.48-4.59,4.11-5.59,5.91.6.36,2.56.36,3.87.44,2.48.04,4.11-.52,4.47,1.4.24,1.64-1.2,2.2-2.6,2.24-2.28.08-3.99-.12-6.51-.24-1.8-.12-4.31-.04-4.55-1.48-.24-2.04,1.8-3.95,2.6-4.87,1.28-1.52,4.27-4.55,5.55-5.55-1.6-.52-7.31.4-7.67-1.24-.12-1.04-.04-1.48.56-1.88,1.24-.84,5.03-.8,8.43-.68,1.48,0,3.35.16,3.95,1.2.52,2.76-1.28,3.47-2.52,4.75Z"/>
      <path d="M102.33,5.82c-.44,6.11-1.08,11.26-1.6,17.13-.12,1.16-.52,4.31-.84,5.15-.48,1.28-2.2,2.44-3.35,1.72-1.36-.76-.12-5.95.08-7.87.56-4.91,1.04-8.47,1.44-13.26.28-3.31,0-7.75,2.72-8.59,2.8-.84,1.76,3.35,1.56,5.71Z"/>
      <path d="M113.12,25.07c2.68.56,3.79-1.6,5.31-.68.88.92.68,2.16,0,2.72-2.04,1.48-5.95,2-7.99.92-3.23-1.32-4.27-2.48-5.35-5.75-.76-3.43-.32-5.95.96-7.71.96-1.8,2.76-3.35,4.35-3.83,3.91-1.36,7.19-.2,8.9,3.83.28.48.84,2.08.84,2.8.08,1.08-.68,2.44-1.76,2.79-1.8.64-2.72,1.2-4.55,1.72-1.24.36-2.88.84-3.83,1.16.32,1.32,1.36,1.68,3.11,2.04ZM109.12,19.16c.72.12,3.15-.68,4.55-.96.92-.2,2.08-.88,2.28-1.56-1.04-3.04-3.43-3.19-5.95-1.16-1.04.84-1.2,2.96-.88,3.67Z"/>
      <path d="M147.54,4.7c.44.6,1.16,2.16,1.2,2.52.28,1.16-.72,3.35-2.28,3.31-1-.04-1.68-1.64-2.28-2.52-.52-.72-1.36-2.04-2.68-1.84-2,.32-3.59,2.16-3.31,3.59.8,4.15,5.15,3.91,7.59,5.43,1.68,1.08,3.27,3.51,3,6.11-.12,1.12-.72,3-1.36,3.95-1,1.52-3.07,3.19-5.99,3.75-1.64.08-4.19.88-5.51-.48-.64-.84-.6-1.64-.52-2.04.12-.84.84-1.36,2-1.68,1.88-.52,3.91.04,5.47-1.08.8-.52,1.72-2,1.04-3.39-.56-1.12-2.96-1.84-4.03-2.24-2.72-.8-4.87-2.56-5.75-5.23-1.32-3.91.12-7.23,2.36-9.18.96-.8,1.92-1.4,3.23-1.96,2.04-1.04,6.67-.08,7.83,2.96Z"/>
      <path d="M167.35,11.21c.24,1.08-.24,2.24-1.08,2.68-1.24.64-4.51.36-5.23,1-.76.64-1.04,5.15-1.16,6.11-.08.8-.48,3.87-.6,4.67-.28,1.36-.52,5.79-2.52,6.07-.88.12-2.16-.24-2.44-.8-.24-.64.64-4.07.72-4.71.12-.72.6-3.75.64-4.47.24-1.52.28-3.35.44-5.67-.88-1.04-3.67.2-4.83-.36-.84-.44-1.12-1.68-.92-2.36.12-.76.8-1.56,1.6-1.88.84-.2,3.59-.16,4.23-.6.68-.48.88-2.88,1.04-3.79.36-2.32.04-4.95,3.19-5.11,2-.12,1.76.92,1.4,2.32-.28,2.12-1,3.19-.56,5.91.96.92,5.67-.88,6.07,1Z"/>
      <path d="M173.82,15.24c-.32,3.15-1.72,9.86,2.92,8.83,1.6-.24,2.68-3.91,2.88-6.11.16-1.76-.12-4.99.2-6.31.32-1.2,2.28-1.6,3-1.16,1.16.68,1.24,4.03,1.2,5.95-.04,1.6-.28,3.39-.76,5.03-1.28,4.51-3.55,7.35-9.42,6.39-2.16-.52-4.11-1.96-4.47-4.91-.16-1.36-.12-4.11-.08-5.31.16-3.07.48-6.03,3.95-5.87,1.08.68.76,2.24.6,3.47Z"/>
      <path d="M196.78,28.74c-2.2-.48-4.31-.36-6.23-1.36-1.76-.96-3.87-2.92-4.43-4.91-.56-2.08-.12-4.39.64-5.79.92-1.8,2.2-3.27,4.03-4.31,2.04-1.08,4.27-1.4,6.83-1.4,1.68-1.28.76-6.95,1.68-8.98.28-.52,1.6-.76,2.24-.56,2.04.32,1.16,4.71.92,7.03-.24,3.08-.6,6.55-.8,9.46-.12,4.03.16,8.47-.28,11.58-.24,1.68-1.36,2.52-3.23,2.12-.92-.44-.84-2.04-1.36-2.88ZM197.38,15.8c-.6-.76-1.56-.28-3.39-.12-2.95.28-4.91,4.19-2.99,6.75,1.16,1.52,4.07,2.83,5.95,2.4.4-.88.36-3.43.48-4.67.12-1.28.24-3.51-.04-4.35Z"/>
      <path d="M210.76,13.25c.12.52-.24,1.52-.48,2.56-.44,2.28-.84,4.55-.96,7.11-.08,1.44.04,3.67-.36,4.51-.56,1.12-3.03,1.92-3.99.92-.68-.68-.32-2.28-.12-3.83.32-2.75.68-5.63,1-8.27.28-2.04.88-4.23,2.8-4.39.56-.08,1.92.36,2.12,1.4ZM211.56,6.94c.04,2.44-4.23,3.11-4.47.72-.12-1.2.84-2.36,1.92-2.6,1.4-.28,2.52.44,2.56,1.88Z"/>
      <path d="M229.53,17.44c.44,3.15-1.4,6.23-4.03,8.15-1.52,1-3.35,1.68-5.79,1.4-2.04-.2-4.35-1.48-5.51-2.68-2.12-2.92-1.68-7.51.08-10.1.92-1.44,1.12-1.88,2.64-3.07.96-.72,1.6-1.16,2.88-1.36,5.79-1.04,9.58,2.56,9.74,7.67ZM221.94,22.99c1.24-.36,2.96-1.88,3.31-3.67.72-3.35-1.68-6.35-4.47-5.83-2.16.4-4.07,4.11-3.67,6.63.32,1.96,2.2,3.55,4.83,2.88Z"/>
    </g>
  </g>
</svg>