<?xml version="1.0" encoding="UTF-8"?>
<svg id="_圖層_2" data-name="圖層 2" xmlns="http://www.w3.org/2000/svg" viewBox="0 0 145.68 67.93">
  <g id="_圖層_1-2" data-name="圖層 1">
    <g>
      <path d="M79.41,34.92l.29-.03c.05-.02.11-.03.19-.03s.12,0,.16-.03h.27l.4-.05c.32-.05.8-.04,1.43.05l.24.03s.03-.11.03-.29c0-.3,0-.47-.03-.5-.02-.04-.05-.06-.09-.08-.04-.02-.11-.03-.2-.03-.14,0-.23,0-.27-.03l-.24-.03-.13-.03s-.1-.03-.19-.03-.18,0-.27.03c-.07.02-.12.02-.16,0-.05-.02-.24-.03-.56-.03-.14,0-.21,0-.21-.03l-.21-.03h-.37s-.09.02-.16.05c-.04.04-.06.08-.08.12-.02.04-.02.11,0,.2,0,.41.02.65.05.72,0,.02.01.03.04.04s.05,0,.07-.01Z"/>
      <path d="M82.01,39.48s-.06-.03-.12-.03-.12,0-.17.03c-.16.05-.32.08-.48.08-.04.02-.07.03-.11.03s-.06,0-.08.03l-.21.05-.16.03-.4.03c-.23.02-.41.02-.53,0-.04-.02-.08-.03-.13-.03s-.1,0-.13-.03h-.08l-.03.08s-.02.11,0,.21c0,.04,0,.1.01.19,0,.09.01.23.01.42v.56s.11.04.29,0l.72-.21.27-.05c.16-.05.42-.11.8-.16l.16-.03c.09,0,.15-.03.19-.09.04-.06.07-.21.11-.44l.08-.56c.02-.05.02-.09,0-.11Z"/>
      <path d="M31.92,30.3l-.08.03s-.06,0-.08.03c-.14.07-.28.11-.42.11l-.21.03c-.07.04-.25.05-.53.05l-.16.03c-.07.02-.17.03-.31.03s-.23,0-.31-.03c-.02-.02-.06-.03-.13-.03l-.13-.03s-.05-.03-.11-.03c-.04,0-.05.02-.05.05v.24c.04.14.05.31.05.5l.05.56s.04.03.08.03c.05,0,.11,0,.16-.03.05-.02.1-.04.13-.05l.21-.03.42-.05s.11-.03.21-.03c.02,0,.04,0,.08-.03.04-.02.07-.03.11-.03.02,0,.11-.02.29-.05.41-.04.61-.07.61-.11.02-.02.03-.15.03-.4.02-.25.05-.42.11-.5.02-.04.03-.08.04-.12,0-.04,0-.08-.01-.12-.02,0-.04,0-.05-.03Z"/>
      <path d="M30.99,36.72c-.09,0-.25,0-.49-.03-.24-.02-.41-.04-.52-.08l-.21-.03c-.14-.02-.23-.02-.27,0,0,.11,0,.2-.03.29v.5l-.08.98s.07.03.16.03l.27-.03c.09,0,.14-.02.16-.05l.34-.08c.07,0,.15-.01.24-.04.09-.03.19-.05.29-.07.04-.02.1-.03.19-.03.11,0,.19-.03.27-.08v-.21c-.02-.07-.03-.23-.03-.48,0-.23,0-.38.03-.45v-.05c0-.07-.02-.11-.07-.12-.04,0-.13,0-.25.01Z"/>
      <path d="M31.36,33.7c-.09,0-.2.03-.34.08-.02.02-.11.03-.27.03-.12-.02-.24-.02-.34,0-.07.02-.21.03-.42.03-.25.02-.39.04-.42.05-.04.02-.05.11-.05.29l.03.29.03.11c0,.07.03.11.08.11.05.04.14.04.27,0,.05-.07.1-.11.13-.11h.16l.16-.03.27-.03.58-.08c.09-.02.15-.04.19-.07.04-.03.06-.08.08-.15.04-.3.04-.47,0-.5,0-.02-.04-.03-.11-.03Z"/>
      <path d="M79.49,37.68c.09,0,.16,0,.21-.03.02,0,.05,0,.11-.03.05-.02.11-.03.19-.03l.32-.05.34-.03.4-.05.96.03c.16,0,.25,0,.28-.03.03-.02.04-.06.04-.13l.03-.16.03-.27c0-.14,0-.22-.03-.24l-.11-.03-.61.11-.21.03s-.06.03-.13.03c-.04.02-.09.03-.16.03l-.21.03c-.05,0-.12.02-.19.05-.05.02-.12.02-.19,0-.11,0-.18,0-.21.03-.04.02-.09.03-.16.03-.09,0-.16,0-.21.03-.09.02-.17,0-.24-.03-.05,0-.09,0-.12-.03-.03-.02-.06-.03-.09-.03-.12-.07-.19-.07-.19,0v.37c0,.12,0,.22.01.29,0,.07.03.11.07.11h.08Z"/>
      <path d="M145.68,28.7V11.32h-56.63c0-.13.02-.25.02-.38,0-6.04-4.9-10.94-10.94-10.94s-10.94,4.9-10.94,10.94c0,.13.01.25.02.38H10.57v17.38c-5.87.2-10.57,5.01-10.57,10.93s4.7,10.73,10.57,10.93v17.38h56.63c.2-5.87,5.01-10.57,10.93-10.57s10.73,4.7,10.93,10.57h56.63v-17.38c-5.87-.2-10.57-5.01-10.57-10.93s4.7-10.73,10.57-10.93ZM25.84,44.28l-.05.66-.03.27-.03.16c-.02.19-.09.49-.21.89-.12.4-.23.7-.32.92-.07.16-.14.3-.2.41-.06.11-.13.2-.2.25-.11.11-.17.16-.19.16l-.13.08-.08.03c-.05,0-.12-.04-.21-.13-.09-.11-.18-.16-.27-.16-.02.02-.07.02-.16,0h-.11s-.08.02-.13,0c-.05-.02-.08-.04-.08-.05-.02,0-.03-.05-.03-.16l-.08-.8c-.05-.07-.08-.24-.08-.5,0-.14-.03-.24-.08-.29-.02-.02-.03-.05-.03-.11,0-.07.03-.14.08-.21l.19-.27.13-.21c.04-.05.07-.1.09-.13.03-.04.05-.07.07-.11l.21-.42s.04-.05.05-.11c.02-.05.04-.11.08-.19.02-.05.04-.11.08-.16.04-.05.05-.1.05-.13l.05-.21c.05-.05.08-.11.08-.19l.16-.42.13-.45c.05-.09.11-.21.16-.37l.11-.19c.04-.11.06-.17.08-.19.02-.07.05-.14.11-.2.05-.06.11-.1.16-.12.04-.04.06-.04.08,0,.05,0,.18.08.37.24.04.05.08.15.13.29.04.11.05.29.05.56.02.14.03.39.03.74,0,.48-.02.75-.05.82ZM29.74,45.05c-.05.11-.08.21-.08.32-.07.25-.15.46-.24.64-.09.18-.16.32-.2.42-.04.11-.08.18-.09.21l-.08.05c-.02.05-.05.11-.09.16-.04.05-.09.09-.15.11-.07.05-.15.04-.24-.05-.07-.07-.12-.11-.16-.13h-.16l-.11.03h-.21c-.07,0-.12-.04-.13-.11-.02-.07-.04-.19-.05-.34-.02-.32-.04-.52-.08-.61v-.21s-.05-.11-.05-.21c-.02-.04-.03-.11-.03-.21l-.03-.13c-.02-.07-.03-.15-.03-.25s0-.17.03-.23l.13-.45.05-.13.03-.16s.03-.09.03-.21l.05-.27c.04-.23.09-.42.16-.56,0-.04.02-.12.05-.27l.03-.24c.02-.07.04-.14.08-.21.04-.07.07-.11.11-.13.02-.02.04-.03.07-.03s.05,0,.07-.03l.11-.05s.04-.05.08-.04c.04,0,.06.02.08.04.12,0,.23.02.32.05.04.05.11.11.24.19.05.02.11.05.16.09.05.04.1.11.13.2.16.55.24,1.13.24,1.75s0,.97-.03,1.01ZM32.08,45.93l-.11-.05-.11-.08c-.04-.05-.07-.07-.11-.05-.02.05-.04.07-.08.05-.07-.04-.12-.04-.16,0h-.05c-.11,0-.16-.09-.16-.27,0-.05,0-.09-.01-.12,0-.03-.01-.05-.01-.07l-.03-.21c0-.09,0-.18-.03-.27-.02-.09-.04-.15-.05-.19l-.05-.08-.05-.53c-.05-.16-.08-.3-.08-.42.02-.04.03-.16.03-.37,0-.46.05-.78.16-.96l.05-.16c.02-.09.06-.18.12-.28.06-.1.13-.15.2-.15l.11-.03c.11,0,.25.06.42.19.19.16.3.25.32.27.11.27.16.42.16.48.11.44.16.86.16,1.25,0,.48-.02.86-.07,1.14-.04.28-.13.55-.25.8-.07.12-.12.19-.15.21s-.08-.02-.17-.11ZM39.45,41.42c0,.44,0,.82-.03,1.14-.02.32-.03.53-.03.64-.02.09-.03.27-.03.53-.05.39-.08.75-.08,1.09-.02.02-.03.05-.03.11s-.02.11-.05.16l-.03.42c-.05.3-.08.53-.08.69-.02.05-.03.1-.03.15s0,.08-.03.12l-.03.24c-.02.23-.06.51-.13.85-.07.34-.14.61-.21.82l-.13.27c-.16.46-.42.81-.77,1.06l-.34.19-.19.11c-.04.07-.07.11-.11.11s-.05.03-.05.08l-.19.05c-.09.02-.17.04-.24.08-.02.02-.07.03-.16.03-.07.05-.13.08-.19.08l-.11.05-.16.03c-.14.07-.28.11-.42.11-.11,0-.17.02-.19.05h-.27c-.05.02-.12.02-.21,0l-.24-.03c-.07,0-.13,0-.19-.03-.05-.02-.09-.03-.11-.03l-.21-.03-.11-.05c-.23-.04-.38-.07-.45-.11-.14-.07-.23-.11-.27-.11-.34-.09-.52-.18-.56-.27-.09-.04-.13-.1-.13-.19,0-.07-.02-.18-.05-.32-.02-.04-.03-.09-.03-.16,0-.25-.04-.4-.11-.45,0-.02,0-.05-.01-.11,0-.05,0-.1.01-.13l-.03-.24s-.03-.07-.03-.16c0-.14-.02-.25-.05-.32-.09-.09-.09-.16,0-.21l.08-.08c.07-.02.15-.04.23-.05.08-.02.14-.04.17-.05.02,0,.04,0,.05-.03.02-.02.05-.03.11-.03.41-.09.67-.18.8-.27.11-.04.19-.07.27-.11.11-.04.17-.06.19-.08.05,0,.08,0,.08-.03.27-.09.46-.13.58-.13.09-.04.13-.06.13-.08.09,0,.15,0,.19-.03.12,0,.2-.02.24-.05l.27-.08c.14-.05.26-.11.36-.16.1-.05.18-.12.25-.21.18-.18.3-.32.37-.42.12-.16.24-.41.34-.74l.05-.29c.05-.04.08-.09.08-.16s.02-.16.05-.27l.08-.32.05-.21.08-.5c0-.19.04-.45.13-.77.04-.14.05-.25.05-.32.04-.05.05-.11.05-.16s0-.09.03-.11c0-.04,0-.09.03-.16.02-.07.03-.15.03-.24l.03-.42c.04-.16.05-.44.05-.85,0-.11-.01-.17-.04-.19-.03-.02-.13-.03-.31-.03-.21,0-.34-.02-.37-.05-.09,0-.15.02-.19.05-.34,0-.6,0-.8-.03-.04,0-.09.02-.16.05-.07.04-.18.05-.32.05-.23,0-.41,0-.53-.01-.12,0-.21,0-.27.01h-.11c-.09,0-.15,0-.19.03,0,.04-.04.05-.13.05l-.13.03-.24.03c-.07,0-.11,0-.11.03-.05,0-.12.02-.19.05l-.13.03-.32-.05h-.11s-.06,0-.24.05c-.12.04-.21.04-.27,0h-.24c-.05.04-.13.05-.24.05-.07,0-.12,0-.16.03-.02-.02-.04-.02-.08-.01-.04,0-.07.01-.11.01-.09,0-.14,0-.16.03l-.16-.03s-.15-.02-.34,0c-.11.02-.24.03-.4.03l-.32.03c-.14,0-.3,0-.46-.03-.17-.02-.31-.04-.41-.05-.04-.02-.08-.03-.12-.03s-.09,0-.15-.03c-.04-.04-.07-.05-.09-.05s-.05,0-.07-.03l-.11-.03-.34-.16c-.14-.07-.21-.14-.21-.21s-.04-.15-.13-.24c-.04-.02-.07-.04-.09-.07-.03-.03-.04-.05-.04-.07l-.08-.13c-.09-.09-.14-.13-.16-.13l-.11-.05s-.07-.12-.11-.32l-.03-.21c0-.14,0-.27-.03-.37,0-.04,0-.1-.01-.19,0-.09,0-.15.01-.19l-.03-.56-.03-.88c-.02-.35-.02-.84,0-1.45.02-.61.04-.93.05-.97.02,0,.03-.16.03-.48l.05-.53.05-.53.05-.98c.02-.05.03-.12.03-.21s0-.18.03-.27c0-.12,0-.23.03-.31.02-.08.03-.13.03-.15l.05-.27v-.24l-.08-.03c-.11-.11-.21-.18-.32-.21-.32-.19-.48-.31-.48-.34l.03-.29c0-.11,0-.19.03-.25.02-.06.03-.11.03-.15.05-.11.06-.17.03-.19v-.42c0-.05,0-.1.03-.13.02-.04.03-.06.03-.08l.03-.21v-.19s.15-.09.33-.16c.19-.07.33-.11.44-.11l.16-.03.34-.03.32-.05s.09-.03.16-.03.12,0,.16-.03c.21,0,.36,0,.45-.03l.27-.03.29-.03c.12-.02.27-.02.42,0,.16-.04.73-.07,1.72-.11h1.14c.83,0,1.3,0,1.41.03l.42.19.27.21c.14.07.21.12.21.16.02.07.03.19.03.37-.02.02-.02.04-.01.05,0,.02.01.04.01.08.05.11.05.17,0,.19l-.03.19c-.02.21-.07.37-.16.48-.02.04-.03.11-.03.21.02.07,0,.13-.03.19-.04.09-.14.16-.32.21-.07,0-.12.02-.16.05l-.5.16-.19.03-.24.05c-.11.04-.2.05-.29.05l-.21.03s-.01.04-.04.05-.05.03-.07.03c-.05-.02-.14,0-.27.03-.19.07-.35.11-.48.11-.05,0-.08.02-.08.05-.02.02-.02.17,0,.45l.03.27.05.29s.05.05.11.05c.35-.02.85-.03,1.49-.03.23.02.37.04.42.05.04.02.09.06.16.13l.16.13c.09.07.13.13.13.19.02.02.03.05.03.11,0,.02,0,.04-.01.07,0,.03,0,.05.01.07,0,.02,0,.04.01.05,0,.02,0,.04-.01.08v.13l-.03.13s-.03.06-.03.13c0,.05,0,.09-.03.11l.03.11c.04.07.04.12,0,.16-.04.04-.15.07-.33.09-.19.03-.3.04-.33.04-.04.02-.08.03-.13.03s-.1,0-.13.03l-.32.03c-.05.04-.1.05-.15.05s-.08,0-.09.03c-.04.02-.09.03-.16.03h-.08s-.09.03-.21.03c-.04.02-.11.04-.23.07-.12.03-.17.06-.17.09-.04,0-.05.11-.05.34v.32h.16l.53-.03c.19-.04.49-.06.9-.08h.42l.16.05s.11.04.24.11l.19.13c.12.07.2.12.23.16.03.04.04.1.04.19,0,.11,0,.17.03.19.02.04.03.09.03.16,0,.02,0,.05-.03.11-.02.05-.03.11-.03.19,0,.05,0,.09-.01.12,0,.03-.01.05-.01.07-.02.04-.03.08-.03.13.02.12.02.2,0,.24-.12.12-.2.19-.24.19l-.16.03c-.07.04-.14.05-.21.05h-.19s-.04.03-.08.03-.06,0-.08.03c-.02.02-.06.03-.13.03l-.11.03c-.05.04-.12.05-.19.05-.04.02-.08.03-.13.03s-.1,0-.13.03l-.4.08s-.09.03-.21.03l-.42.08s-.08.03-.13.03l-.16.03s-.03.2-.03.56,0,.51.03.53h.08c.18,0,.32-.02.42-.05.23-.05.4-.1.5-.13h.13l.19-.03c.12,0,.26-.02.4-.05l.19-.03.21-.03.5-.03s.08,0,.13-.03c.05-.02.1-.03.13-.03.09-.02.19-.03.32-.03s.25,0,.37-.03c.28,0,.52,0,.72.03.19.02.34.05.45.11.12,0,.22.02.29.05.12.02.28.1.48.24.11.04.19.08.27.13.04.02.08.04.15.08.06.04.11.08.15.13.12.18.24.45.34.82.07.37.11.8.11,1.3l-.03,1.33ZM36.35,45.45s.03.09.03.16c0,.11-.02.19-.05.27l-.08.13c-.12.19-.19.29-.21.29-.04,0-.11-.05-.21-.16l-.24-.21c-.05-.02-.09-.06-.11-.13-.11-.16-.19-.17-.24-.03l-.03.11s-.1,0-.19-.08c-.04-.04-.12-.04-.24-.03l-.16.03-.08.05-.05-.13c-.05-.12-.15-.55-.29-1.27-.04-.16-.07-.4-.11-.72,0-.14-.02-.27-.05-.37v-.21c0-.07-.01-.17-.04-.31-.03-.13-.06-.25-.09-.36l-.03-.11s-.03-.08-.03-.12,0-.08-.03-.12c-.02-.11-.03-.23-.03-.36s0-.23.03-.31c0-.02.03-.03.08-.03.04,0,.07,0,.09-.01s.05-.03.07-.07l.08-.13h.11c.07,0,.19.02.37.05.05.05.11.08.19.08.18.07.33.17.45.29l.34.53c.3.46.46.71.48.74.04.07.07.16.09.27s.06.2.09.29c0,.11.02.19.05.27.02.07.03.23.03.48,0,.28,0,.45.03.5v.21c-.05.12-.06.29-.03.5ZM61.99,45.11l-.05.13-.11.16-.11.13-.05.08c0,.09-.02.15-.05.19l-.13.03c-.14.04-.23.05-.27.05-.12.02-.2.04-.24.05-.05.04-.09.04-.11.03l-.11.03c-.05,0-.1.03-.13.08-.07,0-.12,0-.16.03-.14.04-.23.04-.27,0h-.08l-.32.03c-.11,0-.18,0-.21-.03-.05,0-.1,0-.13.03h-.16s-.04-.03-.08-.03c-.02.02-.05.03-.11.03s-.1.02-.13.05l-.11-.03c-.05-.02-.17-.03-.34-.03-.19.04-.33.04-.4,0-.09-.02-.23-.02-.42-.01-.19,0-.32.01-.37.01h-.24s-.1.02-.24,0l-.4.05-.16.05-.32-.03h-.27s-.08-.03-.19-.03c-.02,0-.07,0-.16-.01-.09,0-.17,0-.24.01-.05,0-.1,0-.13-.01-.04,0-.06,0-.08.01h-.48c-.11,0-.22-.02-.34-.05-.04-.02-.09-.02-.17-.01-.08,0-.16.01-.25.01-.09.02-.19.02-.32.01-.12,0-.21-.01-.27-.01l-.34.03c-.05.02-.12.02-.19,0-.02-.02-.06-.03-.13-.03l-.08.03s-.07-.03-.16-.03l-.21-.03c-.11-.02-.19-.02-.27,0-.09,0-.14,0-.16-.03-.02,0-.05,0-.11-.03-.05-.02-.14,0-.27.03-.09,0-.17,0-.25-.03-.08-.02-.13-.03-.15-.03-.05-.04-.12-.04-.19,0-.11,0-.17,0-.19-.03h-.21c-.27,0-.45-.03-.56-.08-.05-.04-.13-.04-.24,0l-.21-.03s-.12-.03-.24-.03c-.09.02-.16.02-.21,0l-.19-.05-.24-.03h-.19s-.07-.05-.11-.05l-.32-.08-.37-.08c-.05,0-.09,0-.12-.03-.03-.02-.06-.03-.09-.03l-.27-.05c-.09,0-.17-.02-.24-.05-.2-.02-.42-.1-.69-.24l-.19-.08c-.12-.09-.19-.15-.19-.19,0-.05,0-.12-.03-.2-.02-.08-.04-.14-.05-.17l-.03-.11c-.02-.05-.04-.11-.05-.19-.02-.07-.04-.12-.08-.16l-.03-.19v-.34c.05-.02.1-.04.13-.08.04-.04.06-.06.08-.08l.08-.05.11-.05.13-.05.16.13c.02.05.05.06.09.01.04-.04.08-.07.09-.07.05,0,.1-.02.13-.05.04-.04.08-.06.15-.08.06-.02.13-.04.2-.08l.58-.13s.07,0,.11-.03c.04-.02.06-.03.08-.03l.16-.03.21-.05.21-.03c.11-.04.22-.06.34-.08.12-.02.27-.04.42-.08l.45-.03c.09-.04.21-.05.37-.05l.58-.08c.11,0,.2,0,.28-.03s.14-.03.17-.03l.34-.05c.23-.02.35-.05.37-.11v-.03c0-.09-.03-.19-.08-.29l-.08-.21v-1.78l-.03-.69-.03-.8c.02-.12.03-.5.03-1.11v-.66l.03-1.49c0-.07,0-.15-.01-.23,0-.08,0-.15.01-.2l.03-.34c-.04-.21-.04-.34,0-.37v-1.33c0-.92,0-1.41.03-1.46v-.11s0-.06.01-.08c0-.02.01-.04.01-.05l.03-.08s-.03-.1.03-.19l.08-.16s.06-.09.12-.17c.06-.08.12-.14.17-.17.04-.02.13-.02.29,0h.19s.04.03.08.03.07.02.11.05c.02.02.04.03.07.04s.06.03.09.07c.07,0,.11.02.11.05.02,0,.04,0,.07.03.03.02.06.03.09.03.14.04.21.06.21.08.02.04.06.11.13.21.07.11.13.25.19.42.09.25.14.42.16.53l.05.32.11.61c0,.05,0,.12.03.21.02.09.03.17.03.24l.08.56c0,.09,0,.16.03.21.02.05.03.09.03.11l.03.24v.13l.1.02c.06,0,.24-.02.57-.04.57-.04.96-.05,1.19-.05l.21.03c.55,0,.97.02,1.26.05.29.04.55.11.78.21l.19.11c.07.02.14.04.2.08.06.04.1.09.12.16.02.05.03.11.03.19v.05s.04.12.11.27l.05.08.03.21-.03.19c.02.05.03.12.03.21s0,.17-.03.24v.08l.05.32s.03.08.03.13c0,.11-.05.21-.16.32l-.11.11-.05.03c-.05.02-.12.02-.19,0-.04,0-.08.02-.13.05l-.08.03-.13.05s-.12.04-.27.05c-.05-.02-.13-.02-.24,0-.11,0-.19.03-.24.08-.16,0-.27.03-.32.08l-.32.05h-.29s-.08.05-.13.05l-.13.03-.29.08-.21.05-.4.05c-.05.02-.11.03-.16.03s-.1,0-.13.03c-.02,0-.05,0-.11.03-.05.02-.12.03-.19.03h-.32c-.04.11-.05.27-.05.5l.03,1.19v1.8c0,.09.02.14.07.16.04.02.12,0,.23-.03.16-.05.27-.08.34-.08l.56-.08s.09-.03.17-.04c.08,0,.14-.02.17-.04l.29-.05.37-.03.58-.13.24-.08.27-.03s.06,0,.12-.03c.06-.02.14-.03.23-.03.18,0,.32-.02.42-.05.09-.04.19-.05.32-.05.11,0,.19.02.27.05.02.02.09.03.21.03.04.02.07.03.11.03s.06,0,.08.03h.19c.21,0,.41.04.58.13.21.11.34.15.4.13l.21.05.19.05s.1.05.19.05c.04.02.08.04.12.05.04.02.08.04.12.08.07,0,.12.04.16.11.04.02.06.06.08.13,0,.02.05.08.16.19l.08.13v.16c0,.28.03.45.08.5.11.16.16.27.16.32,0,.69.04,1.17.13,1.43.02.04.03.08.03.13,0,.09,0,.16-.03.21ZM68.16,28.73l.13-.13s.05-.04.11-.13h.08l.11-.03h.05c.11-.05.17-.08.19-.08l.53-.13c.05-.05.18-.1.37-.13l.11-.03h.03c.11-.05.24-.09.4-.11l.21-.03h.03s.05-.03.11-.03c.04,0,.06,0,.08-.03h.05c.18-.04.29-.05.34-.05h.08c.05-.04.16-.05.32-.05.07-.04.12-.05.16-.05.05-.02.15-.03.29-.03.19,0,.34.03.45.08.3.14.48.24.53.29l.16.11.13.11.11.11.05.05.13.21s0,.05.03.11c.02.05.03.16.03.32,0,.14,0,.24.03.29l-.08.61v.27c0,.05,0,.1-.03.13v.08l-.21.77c-.02.11-.14.35-.37.74-.11.25-.16.41-.16.48v.05c.07.09.11.28.11.58v.69c0,.21-.08.32-.24.32-.18,0-.38-.04-.61-.11-.09,0-.17-.02-.24-.05-.05,0-.08,0-.08-.03h-.05l-.11-.03h-.03c-.18,0-.33-.04-.45-.13-.04-.02-.08-.03-.15-.04-.06,0-.14-.03-.23-.07l-.13-.03c-.14-.04-.28-.1-.42-.19-.05,0-.1,0-.13-.03l-.11-.03c-.21-.04-.36-.11-.45-.24l-.13-.11c-.14-.05-.24-.15-.29-.29-.04-.05-.05-.19-.05-.4,0-.09,0-.16-.03-.21v-.19c-.02-.07-.03-.2-.03-.4,0-.16,0-.25.03-.27.05-.05.11-.08.19-.08l.05-.03c.41-.05.89-.02,1.46.11l.24.03h.05l.03-.05.19-.13c.07-.11.13-.2.17-.28.04-.08.08-.14.12-.17.02-.04.03-.11.03-.21v-.11s-.05,0-.09.01c-.04,0-.12.01-.23.01h-.48l-.21.03s-.07,0-.16.03c-.09.02-.22.03-.4.03l-.19-.03h-.08s-.09.03-.16.03h-.13c-.25,0-.44-.04-.58-.13-.25-.11-.4-.26-.45-.45-.07-.42-.11-.74-.11-.96v-.19ZM74.95,36.59c-.02.25-.05.42-.11.53l-.03.11s-.05.08-.09.13c-.04.05-.09.11-.15.16l-.11.16-.21.16c-.12.12-.2.19-.24.21l-.16.13-.24.13c-.07.07-.14.11-.21.11h-.05c-.05,0-.08-.03-.08-.08-.04-.05-.09-.09-.16-.11-.07-.04-.13-.05-.19-.05-.04.02-.06.02-.08,0l-.05-.03c0-.12-.02-.2-.05-.24-.04-.04-.05-.1-.05-.19l.03-.21s0-.05-.03-.11c-.04-.04-.05-.08-.05-.13l-.03-.11-.05-.16c0-.11-.04-.18-.11-.21-.07-.04-.14-.04-.21-.03-.04.04-.12.05-.24.05-.04,0-.07,0-.09.01-.03,0-.05.02-.08.04-.03.02-.04.04-.04.08l.03.27c.11.57.16,1.14.16,1.72v.42s.03.19.03.45c.04.32.06.56.07.73,0,.17.02.29.04.36v.21c.04.21.05.42.05.64l.03.27.03.5c.02.14.03.35.03.64.04.46.05.73.05.82,0,1.08-.04,1.75-.13,2.02-.02.16-.07.33-.16.52-.09.19-.15.33-.19.44-.14.18-.22.27-.24.29l-.19.16c-.16.19-.34.32-.53.37l-.13.03c-.05.05-.12.08-.21.08h-.03c-.05,0-.09,0-.11.03l-.08.03-.16.03c-.07.02-.21.02-.42,0-.21,0-.33,0-.34-.03h-.08l-.08-.05-.05-.03-.13-.05c-.05-.07-.11-.11-.16-.13-.05-.02-.13-.03-.24-.03l-.24-.03s-.04-.02-.08-.01c-.04,0-.07,0-.11-.01l-.13-.03-.11-.11s-.06-.04-.08-.07c-.02-.03-.03-.05-.03-.07-.04-.07-.07-.26-.11-.56l-.03-.37-.05-.19c0-.11,0-.18-.03-.21-.04-.12-.05-.23-.05-.32l-.03-.21c-.02-.05-.03-.14-.03-.27v-.21l-.08-.08c-.09-.09-.1-.19-.03-.29.02-.02.05-.04.09-.05.04-.02.13-.04.25-.05l.29-.08c.11-.07.19-.11.24-.11l.5-.16c.05-.05.11-.09.19-.11.34-.19.63-.5.88-.9.09-.23.13-.35.13-.37v-.08s.03-.07.03-.16l.05-.19c0-.11,0-.2.03-.29,0-.18,0-.3.03-.37,0-.23,0-.4.03-.5,0-.25,0-.38.03-.4l.03-.9.03-.66c0-.41,0-.62.03-.64l.03-.32c.02-.11.03-.22.03-.34.02-.04.03-.13.03-.29,0-.12.02-.22.05-.29.02-.05.03-.1.03-.15s0-.08-.03-.09l-.4.05c-.07.02-.17.03-.29.03s-.24,0-.34.03c-.21.02-.5.02-.88,0-.12-.02-.22-.04-.29-.08l-.13-.05s-.07-.04-.11-.07c-.04-.03-.07-.05-.11-.07-.04-.04-.05-.07-.05-.11,0-.02-.02-.04-.05-.08l-.05-.11-.03-.13c-.04-.07-.05-.19-.05-.37l-.05-.32s-.03-.12-.03-.27c.02-.11.04-.18.08-.23.04-.04.12-.1.27-.17.18-.07.33-.11.45-.13l.16-.05c.07-.04.14-.05.21-.05.02-.02.04-.03.07-.03s.05,0,.07-.03l.16-.03c.07,0,.11,0,.13-.03l.13-.05s.06,0,.08-.03c.02-.02.04-.03.05-.03.11-.05.21-.08.32-.08l.48-.13.24-.05c.09,0,.15,0,.19-.03l.58-.11.34-.03c.28-.07.61-.11.98-.11h.42l.24.03c.12,0,.2.02.24.05l.13.03c.25.07.44.14.58.21.37.18.59.35.66.53.12.21.17.73.13,1.54ZM86.71,48.69c-.02.07-.06.12-.13.16l-.16.19s-.06.03-.19.03c-.2,0-.34-.03-.45-.08l-.16-.05c-.09,0-.18-.03-.27-.08-.11-.04-.18-.05-.21-.05-.05,0-.1,0-.13.03-.07.02-.12.02-.16,0-.18,0-.38-.07-.61-.21-.12-.09-.27-.24-.45-.45-.02-.04-.04-.07-.08-.11-.04-.04-.07-.07-.11-.11-.09-.09-.16-.18-.23-.28-.06-.1-.12-.18-.17-.25l-.19-.29-.29-.45c-.02-.05-.09-.16-.21-.32-.04-.04-.07-.08-.09-.15-.03-.06-.05-.11-.07-.15-.02-.04-.05-.08-.09-.13-.04-.05-.09-.11-.15-.16l-.11-.16-.08-.16-.13-.21c-.05-.09-.12-.2-.2-.33-.08-.13-.16-.24-.23-.33l-.05-.08-.05-.11-.11-.19c-.05-.07-.12-.15-.2-.23-.08-.08-.15-.14-.2-.17-.04,0-.06,0-.08.03-.07.04-.13.05-.19.05s-.1.06-.15.17c-.04.11-.11.32-.2.62,0,.04,0,.07-.03.09-.02.03-.04.05-.05.07l-.08.13-.16.21-.11.19c-.09.18-.15.28-.19.32,0,.05-.02.1-.05.13,0,.05-.03.11-.08.16l-.11.19-.13.21-.13.19-.11.19c-.12.09-.19.16-.19.21,0,.02-.04.1-.13.24l-.16.19s-.06.09-.13.16l-.13.16c-.02.05-.04.1-.07.13-.03.04-.05.06-.07.08-.04.04-.06.07-.07.09,0,.03-.02.05-.04.07l-.08.11-.16.19-.27.29c-.11.11-.17.19-.19.24-.07.07-.17.14-.29.21-.12.07-.22.11-.29.13-.02,0-.08-.02-.19-.05l-.16-.11-.21-.03c-.05,0-.1.02-.13.05-.12.04-.2.03-.21-.03-.02,0-.03-.04-.03-.11-.04-.07-.05-.15-.05-.24l-.05-.21c-.02-.16-.05-.28-.11-.37-.04-.11-.05-.19-.05-.24l-.05-.27s0-.07-.03-.09c-.02-.03-.03-.05-.03-.07l-.05-.16-.05-.13s.03-.09.09-.17c.06-.08.11-.12.15-.12l.05-.11c.04-.09.06-.13.08-.13l.05-.08.13-.13c.14-.07.21-.12.21-.16l.05-.05c.05-.04.08-.08.08-.13.04-.07.08-.11.13-.11l.08-.08c.07-.07.11-.11.13-.11.04,0,.11-.06.24-.19l.21-.21.08-.08c.07-.11.17-.19.29-.24l.16-.11c.05-.05.09-.08.11-.08.04,0,.08-.02.12-.05.04-.04.07-.06.07-.08l.13-.24s.04-.01.07-.04.04-.06.04-.09c0-.12-.07-.16-.21-.11-.07.02-.12.02-.13,0-.05,0-.1-.03-.13-.08-.02-.04-.03-.11-.03-.21-.02-.05-.03-.11-.03-.17s0-.12-.03-.17l-.05-.27c-.02-.21-.04-.34-.08-.4l-.03-.13-.05-.24-.05-.24-.03-.29c0-.09-.02-.15-.05-.19l-.08-.08c-.05-.02-.06-.14-.03-.37,0-.19,0-.34.03-.42l.03-.37c.02-.09.04-.29.05-.61l.03-.37.05-.34.03-.53.03-.45c.02-.11.03-.24.03-.4.02-.05.03-.11.03-.19s0-.14.03-.21l.03-.45.03-.48.03-.4c.04-.28.05-.55.05-.8l.03-.45c.04-.07.05-.16.05-.27l.03-.32c0-.12.02-.24.05-.34,0-.09.01-.18.04-.27.03-.09.05-.17.07-.24.02-.04.03-.11.03-.21,0-.16.04-.35.11-.58l.08-.27c.05-.35.1-.55.13-.58l.03-.08s.06-.08.12-.12c.06-.04.11-.08.15-.09l.21-.11c.09-.05.24-.11.45-.16.09-.04.13-.12.13-.27.02-.02.03-.04.03-.08s0-.06.03-.08c.02-.02.03-.04.03-.08s0-.07.03-.11c.02-.09.04-.22.08-.4l.03-.16.05-.19.03-.08s-.09-.05-.27-.05l-.19-.03-.16-.03c-.09,0-.15,0-.19-.03-.02-.02-.07-.03-.16-.03-.18,0-.37-.06-.58-.19-.09-.05-.2-.1-.32-.13-.12-.05-.23-.11-.32-.19l-.05-.21c0-.12,0-.2-.03-.24v-.34c-.05-.11-.08-.29-.08-.56v-.24s-.02-.06,0-.08c.04-.05.11-.11.21-.16.11-.05.2-.09.29-.11.07,0,.14-.02.21-.05l.29-.03.27-.03s.1,0,.25-.03c.15-.02.35-.03.6-.03h.29c.09-.02.23-.03.42-.03.14-.02.36-.03.66-.03.48,0,.91.03,1.3.08.3.02.61.13.93.34l.27.19c.05.02.08.08.08.19v.08c0,.07.02.13.05.19.04.05.05.11.05.16,0,.02,0,.05-.03.09-.02.04-.03.09-.03.15,0,.14,0,.23-.03.27-.04.11-.03.19.03.27.02.02.02.04,0,.08-.02.04-.04.07-.05.11-.02.05-.07.11-.16.16-.07.04-.18.06-.32.08-.14,0-.23,0-.27.03-.04.02-.17.03-.4.03-.05-.02-.12-.02-.21,0-.09.02-.14.03-.16.03-.02.02-.06.03-.13.03-.05,0-.1,0-.13.03-.02.04-.05.04-.11.03-.05-.02-.13-.02-.24-.01s-.19.02-.27.04c-.04.04-.06.08-.08.13-.02.05-.03.14-.03.27v.32l-.03.21c0,.12-.02.24-.05.34-.02.07-.02.13-.01.17,0,.04.04.07.09.07l.64-.03h.21l.24.03c.12,0,.24.02.34.05.12.02.26.05.41.09.15.04.28.09.38.15l.32.19s.1.06.2.12c.1.06.17.14.23.23.04.09.07.2.11.34.04.14.06.26.08.34,0,.05,0,.09.03.11l.03.21.05,1.22.03.5c.02.05.03.13.03.24s0,.21.03.32l.03.77c.02.11.03.63.03,1.57s0,1.44-.03,1.57c-.04.8-.08,1.34-.13,1.65l-.03.32c-.02.05-.03.13-.03.24-.02.02-.03.07-.03.16-.02.04-.03.08-.03.12s0,.08-.03.12l-.05.24c-.04.18-.09.34-.16.5-.05.18-.13.34-.24.48-.14.19-.24.29-.29.29l-.03-.03c-.05-.07-.11-.12-.16-.16l-.19-.13h-.11l-.16-.03s-.14-.02-.32.05c-.12.07-.18.11-.16.13.04.04.1.08.2.12.1.04.18.08.25.09l.24.11c.11.05.19.09.27.11.02.02.1.06.24.13.02.02.1.06.24.13.18.14.37.29.58.44.21.15.37.26.48.33.55.3.94.49,1.17.56.11.04.21.08.31.13.1.05.17.1.23.13.02.04.04.08.07.12.03.04.05.08.07.12.05.12.08.22.08.29.04.14.08.27.13.37l.03.11.05.11c.02.07.02.12,0,.16l.03.21c.05.05.08.13.08.24,0,.09,0,.15.03.19.04.14.03.25-.03.32-.04.05-.04.12,0,.21,0,.05.02.13.05.24l.05.24c0,.07-.03.17-.08.29ZM94.31,44.1l-.03.21c-.02.25-.04.44-.05.57-.02.13-.03.23-.03.28-.02.04-.03.08-.03.12s0,.08-.03.09l-.03.27-.08.34-.05.29c-.12.39-.25.63-.37.72-.02.04-.04.06-.07.08-.03.02-.04.04-.04.05l-.13.11c-.12.07-.23.05-.32-.05-.07-.07-.12-.11-.16-.13-.09-.05-.15-.08-.19-.08-.07.02-.13.02-.19,0-.04-.02-.08-.02-.13,0-.11.04-.19.03-.24-.03l-.03-.32v-.32s-.03-.11-.03-.27c0-.12,0-.2-.03-.24-.04-.05-.06-.27-.08-.64-.02-.14-.04-.23-.05-.27-.05-.09-.05-.19,0-.32l.05-.16s0-.06.03-.08c0-.05,0-.09.03-.11,0-.07,0-.13.03-.19l.19-.48c.07-.09.11-.19.11-.32-.02-.02,0-.1.03-.24.05-.09.08-.18.08-.27l.08-.37.05-.27.11-.56.05-.27c.02-.07.04-.12.07-.16s.07-.06.12-.08l.13-.11c.14,0,.28.04.42.11l.24.05.11.05.11.05c.09.05.15.18.19.37.05.18.1.38.13.61l.03.24s.03.28.03.85,0,.82-.03.82ZM96.72,44.5c0,.25,0,.43-.03.56-.02.12-.04.22-.08.29-.04.11-.07.16-.11.16s-.07-.02-.11-.05c0-.04-.03-.08-.08-.13-.05-.02-.1-.07-.13-.16-.05-.11-.08-.12-.08-.05-.02.05-.04.09-.07.11s-.06,0-.09-.03c-.02-.02-.05-.02-.11,0-.09.02-.16,0-.21-.05-.09-.27-.14-.5-.16-.72v-.27l-.05-.29-.03-.24-.03-.11-.03-.32-.03-.37c-.02-.16-.03-.34-.03-.54s0-.38.03-.52c0-.07,0-.12.01-.16,0-.04.01-.06.01-.08l.05-.11c0-.05.02-.12.05-.2.04-.08.07-.14.11-.17.05-.04.11-.05.16-.05.12,0,.25.04.37.13.12.05.21.11.25.17.04.06.08.15.12.25l.05.19.05.16c0,.09.02.17.05.24l.03.24c.04.18.06.48.08.9.02.32.02.73,0,1.22ZM99.06,44.97c-.04.05-.08.1-.13.13-.09,0-.18-.04-.27-.13-.04-.04-.08-.05-.13-.05l-.11-.03-.16-.03c-.14-.02-.25-.05-.33-.11-.08-.05-.17-.14-.28-.27-.09-.09-.17-.15-.24-.19-.05-.07-.1-.14-.13-.21-.11-.16-.19-.37-.24-.64-.02-.02-.03-.08-.03-.19-.02-.02-.03-.07-.03-.16,0-.07-.04-.18-.11-.32v-.21l-.03-.19-.03-.27c-.04-.12-.06-.19-.08-.21-.04-.07-.05-.13-.04-.17,0-.04.03-.08.07-.09.02-.02.05-.03.11-.03l.29.08.48.24c.19.09.34.16.45.23.11.06.2.15.29.25.21.16.34.33.4.5.02.02.06.13.13.34l.08.21c.05.28.08.52.08.72v.37c.02.11.03.19.03.24s-.02.11-.05.16ZM100.04,40.89s0,.05-.01.09c0,.04,0,.1.01.17,0,.14,0,.25-.01.33,0,.08-.04.14-.09.17-.02.02-.04.04-.05.07-.02.03-.03.05-.03.07-.02.05-.07.08-.16.08-.07-.04-.13-.07-.19-.11l-.19-.19s-.06-.06-.08-.08c-.02-.02-.04-.02-.05,0-.05.04-.12.04-.19.03-.07-.04-.15-.05-.24-.05-.07,0-.12,0-.16-.03-.04-.02-.07-.07-.11-.16l-.08-.16s-.08-.08-.12-.15c-.04-.06-.08-.12-.09-.17l-.21-.5c-.04-.09-.06-.13-.08-.13,0-.04-.04-.04-.11,0h-.27c-.18.04-.26.05-.24.05-.07.04-.13.05-.19.05l-.21.05-.13.03-.13.05-.19.03c-.14,0-.24,0-.29.03-.12.02-.27.03-.42.03s-.29,0-.4-.03c-.3-.07-.47-.12-.5-.16-.04,0-.08-.03-.13-.08-.05-.02-.12-.07-.19-.16-.07-.09-.12-.16-.13-.21-.04-.07-.05-.15-.05-.24l-.03-.32-.05-.19c0-.11-.02-.17-.05-.19v-.13l-.03-.16-.03-.11.05-.21c.07-.05.11-.1.11-.13l.08-.11c.05-.05.1-.14.13-.27l.11-.19c.09-.05.13-.11.13-.16.04-.05.07-.09.11-.11l.13-.11.03-.11s.05-.05.05-.11.05-.11.16-.16c.07-.04.12-.09.16-.16l.08-.16c.02-.07.02-.11,0-.11-.12-.05-.21-.08-.27-.08-.04-.04-.08-.05-.13-.05-.04-.02-.14-.08-.32-.19-.12-.11-.24-.19-.34-.24-.23-.09-.39-.17-.48-.24-.05-.04-.1-.07-.13-.11-.04-.04-.06-.06-.08-.08l-.08-.11c-.04-.05-.05-.12-.05-.21l.05-.32c0-.11,0-.19.03-.24.02-.05.03-.09.03-.11s.02-.17.05-.45v-.61l.03-.32c.05-.09.05-.19,0-.29-.05-.12-.06-.19-.03-.21,0-.02.01-.04.04-.07.03-.03.05-.06.07-.09l.19-.19s.05-.04.11-.08c.05-.04.09-.05.11-.05l.13-.11c.09-.14.18-.26.27-.34.18-.16.32-.3.44-.42.11-.12.19-.19.23-.21.07-.07.16-.15.28-.25.11-.1.23-.18.33-.25l.27-.21c.05-.05.12-.08.21-.08l.16-.11c.09-.09.22-.16.4-.21.07-.04.14-.05.21-.05.23-.04.39-.04.48,0,.02,0,.08.05.17.15.1.1.17.17.23.23.04.02.05.14.05.37,0,.11,0,.19-.03.24-.02.05-.03.09-.03.11-.07.3-.11.48-.11.53l-.16.29-.48.66-.16.19-.19.24-.16.21c-.05.04-.1.08-.13.15-.04.06-.05.11-.05.15,0,.05,0,.1.03.13l.48.21.16.08.11.11.13.08c.09.05.17.03.24-.08.04-.05.07-.11.11-.17.04-.06.07-.1.11-.12.02,0,.03,0,.04-.01,0,0,.02-.02.04-.04l.11-.05s.07-.04.11-.13l.13-.21.27-.27c.04-.05.07-.1.11-.13.04-.04.06-.07.08-.11l.16-.08c.07-.04.11-.07.11-.11l.08-.03h.11c.09,0,.19.05.29.16.11.05.16.11.16.16.02.02.03.06.03.13s0,.12.03.16c.04.04.05.06.05.08,0,.11,0,.22-.01.34,0,.12,0,.24.01.34,0,.07-.03.14-.08.21-.04.12-.08.2-.13.24l-.05.11s-.04.08-.08.13c-.04.05-.07.1-.11.13l-.11.19-.11.16c-.05.02-.1.07-.13.16-.16.16-.31.34-.45.56l-.16.19c-.02.05-.07.1-.16.13l-.16.16s-.07.06-.09.08c-.03.02-.05.04-.07.05-.02,0-.06.04-.13.11,0,.05-.05.13-.16.24-.11.07-.16.12-.16.16l-.16.13-.16.21s-.06.09-.13.16l-.11.13s-.06.04-.08.07c-.02.03-.04.05-.05.07-.09.09-.16.19-.21.29-.02.04-.02.07,0,.11.02.02.05.03.11.03.11,0,.19,0,.27-.03.04-.02.1-.04.19-.05.09-.02.15-.03.19-.03l.4-.03.03-.13s-.02-.12-.05-.27c-.04-.21-.04-.42-.03-.61.02-.09.06-.17.13-.24.04-.04.08-.05.13-.05.12,0,.21.03.27.08.07.04.13.05.19.05.07,0,.12.02.16.05l.13.08.11.03.13.08c.07.02.13.06.19.13.02.02.03.04.04.05,0,.02.02.04.04.05l.34.8c.02.05.06.13.13.24.05.11.14.36.27.77.02.09.04.27.08.56.02.07.03.16.03.27.02.11.03.28.03.53,0,.3-.02.48-.05.53ZM110.81,38.84l-.03.72c-.04.85-.07,1.34-.11,1.46,0,.11,0,.2-.03.29v.32l-.08.45v.29l-.05.19c-.04.11-.05.2-.05.29-.04.11-.05.19-.05.24l-.05.24s-.01.08-.04.15c-.03.06-.05.17-.07.33l-.08.19c0,.05,0,.09-.01.12,0,.03-.01.05-.01.07,0,.04,0,.07-.03.11-.02.04-.03.09-.03.16l-.08.29-.05.19c-.07.14-.13.27-.17.4-.04.12-.09.23-.15.32l-.03.08v.08l-.13.27-.16.27-.11.21-.21.32-.24.32s-.06.07-.08.11c-.02.04-.04.05-.05.05,0,.02,0,.04-.03.05-.02.02-.04.04-.05.05-.04.09-.07.13-.11.13-.05.05-.11.13-.16.24-.07.18-.13.27-.19.29-.07.04-.2.05-.4.05-.27-.02-.49-.02-.66,0l-.27.03s-.12-.02-.29-.05l-.24-.03h-.16s-.12-.05-.24-.05l-.21-.03c-.18-.05-.51-.12-1.01-.21-.12-.02-.27-.05-.44-.09-.17-.04-.26-.08-.28-.09l-.13-.08c-.19-.07-.33-.14-.4-.21-.09-.09-.13-.2-.13-.34-.02-.02-.03-.04-.03-.08s0-.06-.03-.08l-.03-.11-.05-.19s-.04-.07-.05-.11c-.02-.04-.03-.08-.03-.13l-.03-.21-.05-.19c-.05-.09-.1-.26-.13-.5,0-.04-.02-.09-.05-.16-.05-.05-.07-.13-.05-.24,0-.19-.03-.33-.08-.4l-.03-.16s.01-.04.04-.08c.03-.04.05-.06.07-.08.04,0,.05-.02.05-.05.04-.04.08-.07.12-.11.04-.04.08-.06.12-.08l.21-.03s.1-.02.34-.05c.04-.02.13-.03.29-.03h.16l.42-.05c.3-.04.54-.08.72-.13l.19-.03.21-.05s.09-.05.16-.05c.02-.02.04-.03.07-.03s.05,0,.07-.03l.05-.03s.05-.02.05-.05c.02-.02.05-.03.11-.03.04-.04.09-.08.16-.15.07-.06.11-.1.11-.12l.11-.08c.09-.05.2-.13.34-.24.14-.11.25-.19.32-.27l.16-.13c.05-.14.09-.22.11-.24l.16-.21c.05-.11.11-.21.17-.32.06-.11.12-.19.17-.27l.08-.24c.12-.18.22-.44.29-.8.11-.23.18-.63.21-1.19.04-.21.06-.45.08-.72.02-.27.04-.65.05-1.17.02-.81.04-1.26.05-1.33l.03-1.94c0-.34-.02-.5-.05-.5-.02-.02-.05-.03-.09-.04-.04,0-.13-.01-.25-.01-.09,0-.17,0-.25-.03s-.14-.03-.17-.03h-.19s-.11.06-.28.07c-.17,0-.28.01-.33.01-.21.02-.33.04-.34.05-.02.02-.04.02-.08,0-.04-.02-.12-.03-.27-.03-.04.02-.08.03-.12.03s-.08,0-.12.03h-.29s-.12.03-.24.03h-.21c-.14.02-.34.04-.6.05-.26.02-.47.02-.65,0-.09,0-.16.04-.21.11l-.08.16-.13.19-.24.61-.05.13c-.04.07-.08.16-.13.27-.05.11-.12.2-.19.29-.09.16-.19.31-.29.45-.09.12-.16.11-.21-.05l-.03-.13-.19-.16s-.04-.06-.05-.08c-.02-.02-.04-.02-.05,0-.05.05-.1.06-.13.03-.04-.04-.09-.05-.16-.05-.05,0-.1,0-.13-.03l-.05-.05.03-.19.03-.4s.03-.16.03-.48l.03-.5v-.21l-.03-.19c0-.27.06-.49.19-.66l.13-.4.03-.11.05-.13.08-.13c.07-.05.11-.11.11-.16,0-.02.04-.06.11-.13v-.08s.02-.04.05-.08c0-.02.02-.04.05-.08l.03-.11s.08-.1.12-.19c.04-.09.08-.17.09-.24l.11-.19.11-.13.05-.08.11-.21c.05-.09.11-.19.16-.29.05-.11.09-.17.11-.19.04-.04.07-.05.11-.04.04,0,.09.03.16.07.11.07.21.15.31.23.1.08.17.15.23.23.05.07.08.28.08.64,0,.18,0,.27.03.29.02.07.08.07.19,0,.27-.09.42-.13.45-.13.05,0,.11-.02.19-.05l.16-.03c.07,0,.13-.02.19-.05.04-.02.08-.03.13-.03.09,0,.26-.06.5-.19l.16-.03.16-.05.21-.05.29-.05c.11-.05.27-.11.48-.16l.34-.05c.32-.04.49-.05.53-.05.19,0,.34.02.42.05.16.04.25.06.27.08l.27.11.4.24.32.19c.12.09.2.15.24.2.04.04.09.14.16.28.09.21.15.47.19.77.02.04.03.08.03.13s0,.1.03.13c0,.04,0,.13.01.28,0,.15.01.38.01.7l.03,1.17c.04.81.05,1.7.05,2.65l-.03,1.57ZM106.91,38.74c.05.05.05.12,0,.21l-.03.19v.13c-.04.05-.05.11-.05.19,0,.02-.02.1-.05.24l-.05.11v.27c0,.16-.02.27-.05.34-.02.04-.07.1-.16.19l-.16.11-.13.03-.27.03c-.07,0-.19-.04-.37-.13l-.11-.05c-.07,0-.15-.03-.24-.08l-.29-.13-.11-.05s-.08-.05-.13-.05c-.02,0-.08-.03-.19-.08l-.72-.48c-.11,0-.16-.02-.16-.05-.04-.04-.07-.05-.11-.05l-.08-.11-.13-.08-.13-.13c-.09-.05-.18-.13-.27-.24l-.11-.11-.03-.05-.11-.13-.03-.11-.03-.58v-1.01c.02-.12.04-.19.05-.19.05-.05.11-.08.19-.08h.24c.35,0,.6.02.74.05l.37.03c.41.04.68.07.82.11l.11.05c.09,0,.17.02.24.05l.11.05c.07.02.15.05.25.09.1.04.17.08.23.12l.11.08.56.34c.07.04.11.08.13.13.09.18.12.3.11.37v.24c0,.14,0,.22.03.24ZM123.51,45.24l-.03.48-.03.34-.05.32c0,.09-.02.17-.05.24-.02.11-.04.22-.08.33-.04.11-.06.2-.08.25l-.03.11-.08.08-.11.05-.05.05-.05.05c-.04.09-.12.08-.24-.03l-.11-.05-.13-.03c-.05-.02-.09-.05-.11-.11-.02-.02-.04-.04-.05-.05-.02-.02-.03-.04-.03-.05l-.13.08c-.11.11-.19.13-.24.08-.04-.04-.07-.05-.11-.05s-.07,0-.11.03c-.02.02-.08.05-.19.11l-.11.03-.05-.05c-.04-.07-.05-.14-.05-.21l-.05-.16-.05-.21-.05-.27c0-.05-.02-.11-.05-.19l-.05-.19c0-.07-.02-.14-.05-.21-.09-.18-.13-.29-.13-.34-.07-.23-.12-.35-.13-.37,0-.02-.02-.1-.05-.24,0-.11,0-.19-.03-.25-.02-.06-.05-.12-.11-.17-.09-.09-.13-.17-.13-.24,0-.25.04-.39.13-.42l.03-.03c.05-.11.08-.2.08-.29,0-.07,0-.13.03-.19l.08-.19.08-.16s.05-.07.05-.11c.02-.09.04-.14.08-.16.02,0,.04,0,.05-.03.02-.02.04-.04.05-.05.04-.04.05-.07.05-.11-.02-.02,0-.04.05-.08.04-.05.06-.08.08-.08l.05-.05s.05-.06.09-.08c.04-.02.1-.03.17-.03.11,0,.17,0,.19-.03.05,0,.09,0,.11-.03h.08c.05,0,.1.02.13.05l.16.03.32.05.11.03c.05,0,.1,0,.15.03.04.02.08.04.09.05l.05.11.11.19.05.13.05.16.05.16c.05.07.08.16.08.27l.08.29c.04.14.05.28.05.42.02.19.05.34.11.45l.05.19v.34ZM124.86,31.55c-.04.48-.04.75-.03.82,0,.34-.02.63-.05.88-.04.35-.1.69-.19,1.01l-.08.32-.08.34-.16.66-.05.24-.05.32-.08.34-.13.72c-.04.21-.14.62-.32,1.22l-.11.4s-.03.08-.04.15c0,.06-.03.14-.07.23l-.08.27c0,.09-.04.22-.11.4l-.11.42-.08.21s-.02.09-.05.16c-.02.09-.06.2-.12.33-.06.13-.12.21-.17.23-.04,0-.06,0-.08-.03-.02,0-.04-.03-.08-.08-.02-.04-.06-.06-.13-.08-.05,0-.1-.04-.13-.13l-.05-.05-.05.05c-.05.09-.12.11-.21.08h-.16c-.11,0-.18-.03-.21-.08-.05-.12-.1-.37-.13-.74-.02-.04-.03-.08-.03-.12s0-.08-.03-.12v-.13s-.03-.04-.03-.08,0-.07-.03-.11l-.05-.21v-.19s-.03-.04-.03-.08,0-.06-.03-.08l-.05-.21c-.04-.11-.06-.25-.07-.42,0-.18-.01-.42-.01-.72,0-.58.02-.96.05-1.14l.03-.34.08-1.03c.02-.05.03-.11.03-.17s0-.12.03-.17l.03-.29s.03-.08.03-.13,0-.11.03-.16l.03-.19.03-.21.03-.42.05-.32.05-.32.08-.37c0-.11.02-.19.05-.27l.11-.48c0-.14.03-.3.08-.48l.03-.24s.03-.08.03-.12,0-.08.03-.12l.03-.24.05-.24.03-.21c0-.11.02-.19.05-.27.02-.04.03-.08.03-.12s0-.08.03-.12c0-.09.03-.17.08-.24.04-.07.09-.12.16-.16l.13-.05s.07-.03.16-.03.15.02.19.05c.02.02.04.03.08.03s.09,0,.16-.03h.13s.09.03.16.03l.13.05c.07.07.15.11.24.11.02,0,.13.04.34.13.16.09.26.13.29.13.02,0,.04.01.07.04.03.03.04.06.04.09l.05.16c.05.11.08.19.08.27,0,.11.03.27.08.48.04.11.05.25.05.42,0,.23,0,.36.03.4v.16Z"/>
    </g>
  </g>
</svg>